/* XPM */
static char * close_pressed_xpm[] = {
"24 26 3 1",
" 	c #1E2326",
".	c #9D5657",
"+	c #4C3743",
"                        ",
"                        ",
"                        ",
"                        ",
"         ......         ",
"       ..........       ",
"      ............      ",
"     ..............     ",
"    ....+......+....    ",
"    ...+++....+++...    ",
"   .....+++..+++.....   ",
"   ......++++++......   ",
"   .......++++.......   ",
"   .......++++.......   ",
"   ......++++++......   ",
"   .....+++..+++.....   ",
"    ...+++....+++...    ",
"    ....+......+....    ",
"     ..............     ",
"      ............      ",
"       ..........       ",
"         ......         ",
"                        ",
"                        ",
"                        ",
"                        "};
