/* XPM */
static char * maximize_toggled_prelight_xpm[] = {
"24 26 3 1",
" 	c #1E2326",
".	c #A7C080",
"+	c #3C4841",
"                        ",
"                        ",
"                        ",
"                        ",
"         ......         ",
"       ..........       ",
"      ............      ",
"     ..............     ",
"    ................    ",
"    ......++++++....    ",
"   ........+++++.....   ",
"   .....+...++++.....   ",
"   .....++...+++.....   ",
"   .....+++...++.....   ",
"   .....++++...+.....   ",
"   .....+++++........   ",
"    ....++++++......    ",
"    ................    ",
"     ..............     ",
"      ............      ",
"       ..........       ",
"         ......         ",
"                        ",
"                        ",
"                        ",
"                        "};
